<svg width="135" height="32" viewBox="0 0 135 32" fill="none" xmlns="http://www.w3.org/2000/svg">
<path d="M12.008 31.528C10.408 31.528 8.92 31.272 7.544 30.76C6.2 30.248 5.016 29.512 3.992 28.552C3 27.56 2.232 26.344 1.688 24.904C1.144 23.464 0.872 21.832 0.872 20.008C0.872 18.152 1.144 16.488 1.688 15.016C2.232 13.544 2.968 12.296 3.896 11.272C4.856 10.248 5.976 9.48 7.256 8.968C8.536 8.424 9.912 8.152 11.384 8.152C12.696 8.152 13.928 8.376 15.08 8.824C16.232 9.272 17.24 9.96 18.104 10.888C19 11.784 19.704 12.92 20.216 14.296C20.728 15.64 20.984 17.208 20.984 19C20.984 19.32 20.968 19.704 20.936 20.152C20.936 20.6 20.92 20.984 20.888 21.304H6.104C6.168 22.36 6.376 23.272 6.728 24.04C7.08 24.776 7.544 25.384 8.12 25.864C8.696 26.344 9.336 26.712 10.04 26.968C10.744 27.192 11.48 27.304 12.248 27.304C12.92 27.304 13.56 27.24 14.168 27.112C14.808 26.984 15.4 26.76 15.944 26.44C16.52 26.12 17.064 25.704 17.576 25.192L20.36 27.88C19.656 28.712 18.856 29.416 17.96 29.992C17.096 30.536 16.152 30.92 15.128 31.144C14.136 31.4 13.096 31.528 12.008 31.528ZM6.2 17.224H15.704C15.704 16.456 15.592 15.768 15.368 15.16C15.176 14.552 14.888 14.04 14.504 13.624C14.12 13.208 13.64 12.904 13.064 12.712C12.52 12.488 11.88 12.376 11.144 12.376C10.536 12.376 9.944 12.472 9.368 12.664C8.824 12.824 8.328 13.112 7.88 13.528C7.432 13.944 7.064 14.456 6.776 15.064C6.488 15.672 6.296 16.392 6.2 17.224ZM34.616 31.528C32.632 31.528 30.76 31.24 29 30.664C27.272 30.056 25.832 29.144 24.68 27.928L27.32 23.464L27.512 23.08L27.944 23.32C28.008 23.544 28.088 23.784 28.184 24.04C28.312 24.296 28.568 24.6 28.952 24.952C29.752 25.56 30.632 26.056 31.592 26.44C32.584 26.792 33.656 26.984 34.808 27.016C35.544 27.016 36.216 26.936 36.824 26.776C37.464 26.616 38.008 26.376 38.456 26.056C38.904 25.736 39.256 25.336 39.512 24.856C39.768 24.344 39.896 23.768 39.896 23.128C39.896 22.744 39.848 22.376 39.752 22.024C39.656 21.672 39.48 21.336 39.224 21.016C39 20.664 38.664 20.328 38.216 20.008C37.768 19.656 37.208 19.288 36.536 18.904C35.864 18.488 35.016 18.056 33.992 17.608C31.944 16.712 30.312 15.8 29.096 14.872C27.912 13.944 27.064 12.952 26.552 11.896C26.04 10.84 25.784 9.64 25.784 8.296C25.784 6.824 26.184 5.512 26.984 4.36C27.816 3.208 28.952 2.296 30.392 1.624C31.832 0.951999 33.48 0.615999 35.336 0.615999C36.584 0.615999 37.752 0.759999 38.84 1.048C39.928 1.336 40.936 1.768 41.864 2.344C42.792 2.888 43.64 3.592 44.408 4.456L41.24 8.104L40.952 8.44L40.568 8.152C40.536 7.896 40.472 7.656 40.376 7.432C40.312 7.176 40.104 6.856 39.752 6.472C39.144 5.896 38.488 5.512 37.784 5.32C37.112 5.128 36.312 5.032 35.384 5.032C34.712 5.032 34.12 5.112 33.608 5.272C33.096 5.432 32.648 5.656 32.264 5.944C31.912 6.232 31.624 6.568 31.4 6.952C31.208 7.304 31.112 7.672 31.112 8.056C31.112 8.44 31.16 8.808 31.256 9.16C31.352 9.48 31.512 9.8 31.736 10.12C31.992 10.44 32.344 10.776 32.792 11.128C33.272 11.448 33.88 11.8 34.616 12.184C35.352 12.568 36.264 13 37.352 13.48C38.856 14.184 40.12 14.872 41.144 15.544C42.168 16.184 42.968 16.872 43.544 17.608C44.152 18.312 44.584 19.096 44.84 19.96C45.096 20.792 45.224 21.736 45.224 22.792C45.224 24.232 44.856 25.624 44.12 26.968C43.384 28.312 42.232 29.416 40.664 30.28C39.096 31.112 37.08 31.528 34.616 31.528ZM48.824 1.096H54.248H54.728V1.528C54.536 1.72 54.408 1.928 54.344 2.152C54.312 2.376 54.296 2.76 54.296 3.304V13.24H63.512V1.096H68.984H69.416V1.528C69.224 1.72 69.112 1.928 69.08 2.152C69.048 2.376 69.032 2.76 69.032 3.304V31H63.512V17.56H54.296V31H48.824V1.096ZM83.096 31.576C80.632 31.576 78.568 30.968 76.904 29.752C75.272 28.536 74.024 26.776 73.16 24.472C72.328 22.168 71.912 19.368 71.912 16.072C71.912 12.84 72.328 10.088 73.16 7.816C74.024 5.512 75.272 3.752 76.904 2.536C78.568 1.288 80.632 0.663999 83.096 0.663999C85.528 0.663999 87.56 1.288 89.192 2.536C90.856 3.752 92.104 5.512 92.936 7.816C93.8 10.088 94.232 12.84 94.232 16.072C94.232 19.368 93.8 22.184 92.936 24.52C92.104 26.824 90.856 28.584 89.192 29.8C87.56 30.984 85.528 31.576 83.096 31.576ZM83.096 27.16C84.312 27.16 85.336 26.76 86.168 25.96C87.032 25.128 87.688 23.896 88.136 22.264C88.616 20.6 88.856 18.52 88.856 16.024C88.856 13.688 88.616 11.704 88.136 10.072C87.688 8.44 87.032 7.208 86.168 6.376C85.336 5.512 84.312 5.08 83.096 5.08C81.88 5.08 80.84 5.512 79.976 6.376C79.112 7.208 78.44 8.44 77.96 10.072C77.512 11.704 77.288 13.688 77.288 16.024C77.288 18.52 77.512 20.6 77.96 22.264C78.44 23.896 79.112 25.128 79.976 25.96C80.84 26.76 81.88 27.16 83.096 27.16ZM97.304 31V1.096H107.48C109.816 1.096 111.72 1.496 113.192 2.296C114.696 3.096 115.8 4.152 116.504 5.464C117.24 6.776 117.608 8.248 117.608 9.88C117.608 11.064 117.4 12.184 116.984 13.24C116.6 14.264 115.992 15.176 115.16 15.976C114.36 16.744 113.336 17.352 112.088 17.8C110.872 18.248 109.416 18.472 107.72 18.472H102.824V31H97.304ZM102.824 13.96H107.336C108.36 13.96 109.224 13.784 109.928 13.432C110.632 13.08 111.16 12.6 111.512 11.992C111.864 11.384 112.04 10.68 112.04 9.88C112.04 9.08 111.864 8.376 111.512 7.768C111.16 7.16 110.632 6.68 109.928 6.328C109.256 5.976 108.408 5.8 107.384 5.8H102.824V13.96Z" fill="black"/>
<path d="M130.472 31.576C129.448 31.576 128.584 31.224 127.88 30.52C127.176 29.816 126.824 28.968 126.824 27.976C126.824 26.984 127.176 26.136 127.88 25.432C128.584 24.728 129.448 24.376 130.472 24.376C131.464 24.376 132.312 24.728 133.016 25.432C133.72 26.136 134.072 26.984 134.072 27.976C134.072 28.968 133.72 29.816 133.016 30.52C132.312 31.224 131.464 31.576 130.472 31.576Z" fill="#E73C17"/>
</svg>
